<svg xmlns="http://www.w3.org/2000/svg" version="1.1" xmlns:xlink="http://www.w3.org/1999/xlink" xmlns:svgjs="http://svgjs.dev/svgjs" width="1500" height="659" viewBox="0 0 1500 659"><g transform="matrix(1,0,0,1,-0.9090909090909918,-0.056299840274164126)"><svg viewBox="0 0 396 174" data-background-color="#398378" preserveAspectRatio="xMidYMid meet" height="659" width="1500" xmlns="http://www.w3.org/2000/svg" xmlns:xlink="http://www.w3.org/1999/xlink"><g id="tight-bounds" transform="matrix(1,0,0,1,0.2400000000000091,0.014865208205918634)"><svg viewBox="0 0 395.52 173.97026958358816" height="173.97026958358816" width="395.52"><g><svg viewBox="0 0 805.78344231447 354.425472" height="173.97026958358816" width="395.52"><g transform="matrix(1,0,0,1,410.26344231446996,129.9076560134957)"><svg viewBox="0 0 395.52 94.61015997300858" height="94.61015997300858" width="395.52"><g id="textblocktransform"><svg viewBox="0 0 395.52 94.61015997300858" height="94.61015997300858" width="395.52" id="textblock"><g><svg viewBox="0 0 395.52 94.61015997300858" height="94.61015997300858" width="395.52"><g transform="matrix(1,0,0,1,0,0)"><svg width="395.52" viewBox="1.81 -37.5 199.2103748763604 47.660000000000004" height="94.61015997300858" data-palette-color="#ffffff"><g transform="matrix(1,0,0,1,0,0)"><g><svg width="12.061564876360368" viewBox="1.78 -36.36 74.21 36.36" height="5.909589681049291" data-palette-color="#ffffff" id="scriptelement" x="186.4607824381802" y="-31.925984840524645"><path d="M12.91-30.02L1.78-30.02 1.78-36.36 31.64-36.36 31.64-30.02 20.51-30.02 20.51 0 12.91 0 12.91-30.02ZM36.57 0L36.57-36.36 46.06-36.36 56.07-11.93 56.5-11.93 66.51-36.36 75.99-36.36 75.99 0 68.53 0 68.53-23.67 68.23-23.67 58.82-0.18 53.74-0.18 44.33-23.76 44.03-23.76 44.03 0 36.57 0Z" opacity="1" transform="matrix(1,0,0,1,0,0)" fill="#ffffff" class="undefined-123" data-fill-palette-color="primary" id="tk-123"></path></svg></g></g><path d="M183.963-28.971C183.963-33.682 187.781-37.5 192.492-37.5 197.202-37.5 201.02-33.682 201.02-28.971 201.02-24.261 197.202-20.442 192.492-20.442 187.781-20.442 183.963-24.261 183.963-28.971ZM192.492-20.842C196.981-20.842 200.62-24.482 200.62-28.971 200.62-33.461 196.981-37.1 192.492-37.1 188.002-37.1 184.363-33.461 184.363-28.971 184.363-24.482 188.002-20.842 192.492-20.842Z" fill="#ffffff" id="scriptcircle" data-fill-palette-color="primary"></path><g class="wordmark-text-0" data-fill-palette-color="primary" id="text-0"><path d="M22.19-9.16L22.19-9.16Q22.19-11.5 20.54-12.77 18.9-14.04 14.6-15.33 10.3-16.63 7.76-18.21L7.76-18.21Q2.91-21.26 2.91-26.17L2.91-26.17Q2.91-30.47 6.41-33.25 9.91-36.04 15.5-36.04L15.5-36.04Q19.21-36.04 22.12-34.67 25.02-33.3 26.68-30.77 28.34-28.25 28.34-25.17L28.34-25.17 22.19-25.17Q22.19-27.95 20.45-29.53 18.7-31.1 15.45-31.1L15.45-31.1Q12.43-31.1 10.75-29.81 9.08-28.52 9.08-26.2L9.08-26.2Q9.08-24.24 10.89-22.94 12.7-21.63 16.85-20.4 21-19.17 23.51-17.59 26.03-16.02 27.2-13.98 28.37-11.94 28.37-9.2L28.37-9.2Q28.37-4.76 24.96-2.14 21.56 0.49 15.72 0.49L15.72 0.49Q11.87 0.49 8.63-0.94 5.4-2.37 3.6-4.88 1.81-7.4 1.81-10.74L1.81-10.74 7.98-10.74Q7.98-7.71 9.99-6.05 11.99-4.39 15.72-4.39L15.72-4.39Q18.95-4.39 20.57-5.7 22.19-7.01 22.19-9.16ZM56.35-13.31L56.35-12.94Q56.35-6.81 53.56-3.16 50.78 0.49 46.09 0.49L46.09 0.49Q41.75 0.49 39.13-2.37L39.13-2.37 39.13 10.16 33.2 10.16 33.2-26.42 38.67-26.42 38.91-23.73Q41.53-26.9 46.02-26.9L46.02-26.9Q50.85-26.9 53.6-23.3 56.35-19.7 56.35-13.31L56.35-13.31ZM50.44-13.45L50.44-13.45Q50.44-17.41 48.86-19.73 47.29-22.05 44.36-22.05L44.36-22.05Q40.72-22.05 39.13-19.04L39.13-19.04 39.13-7.32Q40.74-4.25 44.41-4.25L44.41-4.25Q47.24-4.25 48.84-6.53 50.44-8.81 50.44-13.45ZM72.99 0.49L72.99 0.49Q67.35 0.49 63.85-3.06 60.35-6.62 60.35-12.52L60.35-12.52 60.35-13.26Q60.35-17.21 61.87-20.32 63.4-23.44 66.16-25.17 68.92-26.9 72.31-26.9L72.31-26.9Q77.7-26.9 80.65-23.46 83.59-20.02 83.59-13.72L83.59-13.72 83.59-11.33 66.33-11.33Q66.6-8.06 68.51-6.15 70.43-4.25 73.33-4.25L73.33-4.25Q77.41-4.25 79.98-7.54L79.98-7.54 83.17-4.49Q81.59-2.12 78.94-0.82 76.29 0.49 72.99 0.49ZM72.29-22.14L72.29-22.14Q69.84-22.14 68.34-20.43 66.84-18.73 66.43-15.67L66.43-15.67 77.73-15.67 77.73-16.11Q77.53-19.09 76.14-20.62 74.75-22.14 72.29-22.14ZM88.1-26.42L93.69-26.42 93.86-23.36Q96.79-26.9 101.56-26.9L101.56-26.9Q109.81-26.9 109.95-17.46L109.95-17.46 109.95 0 104.02 0 104.02-17.11Q104.02-19.63 102.93-20.84 101.85-22.05 99.38-22.05L99.38-22.05Q95.79-22.05 94.04-18.8L94.04-18.8 94.04 0 88.1 0 88.1-26.42ZM114.88-13.4L114.88-13.4Q114.88-19.51 117.71-23.21 120.55-26.9 125.31-26.9L125.31-26.9Q129.51-26.9 132.09-23.97L132.09-23.97 132.09-37.5 138.03-37.5 138.03 0 132.66 0 132.36-2.73Q129.7 0.49 125.26 0.49L125.26 0.49Q120.62 0.49 117.75-3.25 114.88-6.98 114.88-13.4ZM120.82-12.89L120.82-12.89Q120.82-8.86 122.37-6.6 123.92-4.35 126.77-4.35L126.77-4.35Q130.41-4.35 132.09-7.59L132.09-7.59 132.09-18.87Q130.46-22.05 126.82-22.05L126.82-22.05Q123.94-22.05 122.38-19.76 120.82-17.48 120.82-12.89ZM150.52-26.42L150.52 0 144.59 0 144.59-26.42 150.52-26.42ZM144.23-33.28L144.23-33.28Q144.23-34.64 145.09-35.55 145.96-36.45 147.57-36.45 149.18-36.45 150.06-35.55 150.94-34.64 150.94-33.28L150.94-33.28Q150.94-31.93 150.06-31.04 149.18-30.15 147.57-30.15 145.96-30.15 145.09-31.04 144.23-31.93 144.23-33.28ZM155.87-13.16L155.87-13.45Q155.87-17.33 157.41-20.45 158.94-23.56 161.73-25.23 164.51-26.9 168.12-26.9L168.12-26.9Q173.47-26.9 176.8-23.46 180.14-20.02 180.4-14.33L180.4-14.33 180.43-12.94Q180.43-9.03 178.93-5.96 177.43-2.88 174.63-1.2 171.84 0.49 168.17 0.49L168.17 0.49Q162.58 0.49 159.23-3.23 155.87-6.96 155.87-13.16L155.87-13.16ZM161.8-12.94L161.8-12.94Q161.8-8.86 163.49-6.56 165.17-4.25 168.17-4.25 171.18-4.25 172.85-6.59 174.52-8.94 174.52-13.45L174.52-13.45Q174.52-17.46 172.8-19.8 171.08-22.14 168.12-22.14L168.12-22.14Q165.22-22.14 163.51-19.84 161.8-17.53 161.8-12.94Z" fill="#ffffff" data-fill-palette-color="primary"></path></g></svg></g></svg></g></svg></g></svg></g><g><svg viewBox="0 0 354.425472 354.425472" height="354.425472" width="354.425472"><g><svg viewBox="0 0 354.425472 354.425472" height="354.425472" width="354.425472"><g transform="matrix(1,0,0,1,93.6738511078524,93.70985924789213)"><svg viewBox="0 0 167.0777697842952 167.00575350421576" height="167.00575350421576" width="167.0777697842952"><g><svg xmlns="http://www.w3.org/2000/svg" xmlns:xlink="http://www.w3.org/1999/xlink" version="1.1" x="0" y="0" viewBox="3 3 58 57.975" style="enable-background:new 0 0 64 64;" xml:space="preserve" height="167.00575350421576" width="167.0777697842952" class="icon-dxe-0" data-fill-palette-color="accent" id="dxe-0"><g fill="#ffffff" data-fill-palette-color="accent"><polygon points="29.92,31 29.087,41 34.913,41 34.08,31  " fill="#ffffff" data-fill-palette-color="accent"></polygon><path d="M31.562 45H32.439A2.56 2.56 0 0 0 34.934 43H29.067A2.56 2.56 0 0 0 31.562 45" fill="#ffffff" data-fill-palette-color="accent"></path><polygon points="27.08,41 27.914,31 23.781,31 21.28,41  " fill="#ffffff" data-fill-palette-color="accent"></polygon><polygon points="22.219,29 41.781,29 43.781,37 53,37 53,35 45,35 45,33 52.259,33 46.426,23 17.574,23 11.741,33 19,33 19,35    11,35 11,37 20.219,37  " fill="#ffffff" data-fill-palette-color="accent"></polygon><polygon points="36.086,31 36.919,41 42.719,41 40.219,31  " fill="#ffffff" data-fill-palette-color="accent"></polygon><path d="M19 42.438C19 42.068 19.046 41.696 19.136 41.333L19.719 39H13V53.881A29 29 0 0 0 21 58.827V46.209A4.56 4.56 0 0 1 19 42.438" fill="#ffffff" data-fill-palette-color="accent"></path><path d="M9 27H12.926L16.426 21H47.574L48.684 22.903A6 6 0 0 0 49 21C49 17.691 46.309 15 43 15 42.73 15 42.445 15.024 42.103 15.075L41.065 15.231 40.96 14.187A7.973 7.973 0 0 0 33 7C28.589 7 25 10.589 25 15H23A9.97 9.97 0 0 1 25.981 7.888C24.444 4.906 21.394 3 18 3 13.037 3 9 7.038 9 12 9 12.336 9.022 12.671 9.059 13.004A8 8 0 0 1 15.634 16.527L13.976 17.646A6 6 0 0 0 9 15C5.691 15 3 17.691 3 21S5.691 27 9 27" fill="#ffffff" data-fill-palette-color="accent"></path><path d="M9 33.729L11.759 29H9A7.96 7.96 0 0 1 3.477 26.773 29 29 0 0 0 3 32C3 39.733 6.049 46.763 11 51.968V39H9z" fill="#ffffff" data-fill-palette-color="accent"></path><path d="M44.863 41.332A4.56 4.56 0 0 1 43 46.209V58.826A29 29 0 0 0 51 53.88V39H44.28z" fill="#ffffff" data-fill-palette-color="accent"></path><path d="M39.562 45H40.439A2.56 2.56 0 0 0 42.934 43H37.067A2.56 2.56 0 0 0 39.562 45" fill="#ffffff" data-fill-palette-color="accent"></path><path d="M32 3C29.735 3 27.495 3.265 25.315 3.78A11 11 0 0 1 27.582 6.608 9.93 9.93 0 0 1 33 5 9.96 9.96 0 0 1 42.801 13.003L43 13C47.411 13 51 16.589 51 21 51 22.419 50.61 23.782 49.905 24.996L55 33.729V39H53V51.968C57.951 46.763 61 39.733 61 32 61 16.009 47.99 3 32 3" fill="#ffffff" data-fill-palette-color="accent"></path><path d="M33 55H35V57H33V60.975A29 29 0 0 0 37 60.56V51H33z" fill="#ffffff" data-fill-palette-color="accent"></path><path d="M27 60.56C28.306 60.788 29.641 60.929 31 60.975V57H29V55H31V51H27z" fill="#ffffff" data-fill-palette-color="accent"></path><path d="M39.562 47C38.114 47 36.837 46.309 36 45.254 35.164 46.309 33.887 47 32.438 47H31.561C30.113 47 28.836 46.309 27.999 45.254 27.164 46.309 25.887 47 24.438 47H23.561C23.369 47 23.186 46.966 22.999 46.943V59.563C23.656 59.778 24.322 59.972 24.999 60.141V49H38.999V60.141A28 28 0 0 0 40.999 59.563V46.943C40.814 46.966 40.631 47 40.438 47z" fill="#ffffff" data-fill-palette-color="accent"></path><path d="M24.438 45A2.56 2.56 0 0 0 26.933 43H21.066A2.56 2.56 0 0 0 23.561 45z" fill="#ffffff" data-fill-palette-color="accent"></path></g></svg></g></svg></g><g id="text-0"><path d="M34.697 112.777v0c-1.67-0.609-3.173-0.49-4.511 0.356-1.337 0.846-3.03 2.635-5.077 5.368-2.041 2.735-3.958 4.804-5.753 6.208v0c-3.445 2.672-6.921 3.369-10.426 2.091v0c-3.071-1.119-5.145-3.292-6.223-6.519-1.078-3.227-0.888-6.839 0.57-10.837v0c0.965-2.648 2.317-4.834 4.053-6.556 1.728-1.718 3.711-2.843 5.949-3.376 2.242-0.524 4.46-0.385 6.654 0.415v0l-2.403 6.592c-1.99-0.725-3.771-0.668-5.346 0.171-1.581 0.837-2.794 2.417-3.641 4.739v0c-0.788 2.162-0.94 4.009-0.454 5.541 0.492 1.534 1.566 2.604 3.222 3.208v0c1.395 0.508 2.794 0.287 4.2-0.665 1.405-0.952 3.087-2.752 5.045-5.401 1.963-2.64 3.834-4.654 5.616-6.041 1.781-1.387 3.554-2.234 5.317-2.54 1.758-0.309 3.615-0.106 5.573 0.607v0c3.173 1.157 5.252 3.295 6.239 6.416 0.995 3.117 0.732 6.76-0.789 10.931v0c-1.005 2.757-2.44 5.104-4.306 7.041-1.865 1.936-3.928 3.221-6.188 3.853-2.264 0.624-4.592 0.5-6.985-0.372v0l2.414-6.621c2.162 0.788 4.098 0.686 5.808-0.307 1.706-1.002 3.045-2.836 4.017-5.503v0c0.84-2.303 1.004-4.207 0.495-5.712-0.512-1.498-1.536-2.527-3.07-3.087z" fill="#ffffff" data-fill-palette-color="accent"></path><path d="M74.257 51.562l0.299 0.293c3.33 3.256 5.25 6.61 5.761 10.061 0.506 3.456-0.488 6.46-2.983 9.011v0c-2.309 2.361-4.937 3.491-7.885 3.389v0l10.217 9.99-4.734 4.841-29.832-29.168 4.363-4.462 2.383 1.945c-0.333-3.107 0.695-5.882 3.085-8.326v0c2.571-2.629 5.565-3.734 8.983-3.315 3.414 0.424 6.861 2.338 10.343 5.741zM69.427 56.253v0c-2.147-2.099-4.272-3.339-6.376-3.72-2.099-0.376-3.929 0.234-5.49 1.831v0c-1.933 1.977-2.502 4.195-1.709 6.657v0l9.559 9.347c2.527 0.756 4.764 0.139 6.71-1.853v0c1.504-1.538 2.062-3.35 1.673-5.435-0.385-2.081-1.84-4.356-4.367-6.827z" fill="#ffffff" data-fill-palette-color="accent"></path><path d="M127.699 39.699v0c-3.994 1.566-7.723 1.577-11.189 0.033-3.472-1.542-6.028-4.405-7.669-8.588v0l-0.306-0.78c-1.099-2.802-1.538-5.515-1.316-8.14 0.212-2.629 1.054-4.941 2.524-6.936 1.479-1.992 3.42-3.459 5.822-4.401v0c3.816-1.497 7.244-1.437 10.284 0.18 3.043 1.623 5.438 4.662 7.186 9.118v0l0.999 2.548-18.342 7.194c1.098 2.239 2.593 3.767 4.485 4.582 1.884 0.812 3.852 0.815 5.907 0.009v0c2.891-1.134 4.785-3.222 5.682-6.266v0l4.666 1.911c-0.463 2.12-1.451 4.01-2.964 5.672-1.513 1.661-3.436 2.949-5.769 3.864zM117.52 15.957v0c-1.731 0.679-2.892 1.829-3.484 3.451-0.584 1.626-0.601 3.578-0.051 5.857v0l12.009-4.71-0.183-0.466c-0.967-2.056-2.154-3.43-3.559-4.123-1.411-0.69-2.989-0.693-4.732-0.009z" fill="#ffffff" data-fill-palette-color="accent"></path><path d="M174.191 0.03l6.369 0.22 0.084 3.488c2.318-2.611 5.287-3.854 8.908-3.729v0c6.267 0.217 9.335 3.916 9.202 11.099v0l-0.688 19.905-6.767-0.234 0.674-19.517c0.066-1.912-0.297-3.342-1.088-4.289-0.798-0.947-2.133-1.453-4.005-1.518v0c-2.729-0.094-4.803 1.071-6.222 3.495v0l-0.74 21.436-6.768-0.234z" fill="#ffffff" data-fill-palette-color="accent"></path><path d="M238.463 26.895v0c2.059-4.162 4.68-7.025 7.862-8.588 3.176-1.566 6.387-1.546 9.633 0.061v0c2.862 1.416 4.681 3.558 5.458 6.426v0l6.844-13.832 6.069 3.003-18.973 38.347-5.493-2.717 1.079-2.942c-2.9 1.3-5.866 1.2-8.899-0.301v0c-3.161-1.564-5.087-4.105-5.778-7.622-0.7-3.514 0.033-7.459 2.198-11.835zM244.274 30.42v0c-1.359 2.746-1.891 5.15-1.596 7.21 0.292 2.066 1.414 3.583 3.367 4.549v0c2.478 1.226 4.838 1.015 7.082-0.632v0l5.707-11.535c-0.045-2.719-1.306-4.692-3.784-5.917v0c-1.965-0.972-3.864-0.943-5.695 0.087-1.838 1.028-3.532 3.107-5.081 6.238z" fill="#ffffff" data-fill-palette-color="accent"></path><path d="M310.833 61.184l-22.122 20.471-4.592-4.963 22.121-20.471zM311.698 50.6v0c0.765-0.708 1.624-1.053 2.577-1.035 0.953 0.018 1.846 0.476 2.679 1.376 0.828 0.895 1.218 1.823 1.171 2.785-0.052 0.957-0.46 1.789-1.224 2.496v0c-0.75 0.694-1.598 1.025-2.547 0.993-0.958-0.032-1.85-0.496-2.678-1.39-0.832-0.9-1.223-1.823-1.172-2.77 0.046-0.943 0.444-1.761 1.194-2.455z" fill="#ffffff" data-fill-palette-color="accent"></path><path d="M322.165 106.664l0.314-0.122c2.749-1.067 5.439-1.483 8.072-1.248 2.633 0.235 4.922 1.11 6.87 2.626 1.953 1.514 3.426 3.549 4.418 6.107v0c1.473 3.796 1.449 7.348-0.072 10.655-1.528 3.31-4.27 5.842-8.226 7.597v0l-1.475 0.605c-2.768 1.074-5.45 1.501-8.047 1.282-2.591-0.222-4.868-1.091-6.83-2.608-1.968-1.515-3.456-3.571-4.464-6.167v0c-1.54-3.967-1.451-7.654 0.266-11.059 1.717-3.405 4.775-5.961 9.174-7.668zM324.377 113.069v0c-2.888 1.121-4.92 2.596-6.094 4.425-1.168 1.826-1.339 3.806-0.511 5.939 0.825 2.127 2.297 3.462 4.414 4.006 2.124 0.542 4.788 0.19 7.994-1.054v0c2.837-1.101 4.851-2.584 6.041-4.448 1.181-1.868 1.366-3.849 0.553-5.944v0c-0.798-2.057-2.248-3.375-4.35-3.954-2.108-0.577-4.791-0.233-8.047 1.03z" fill="#ffffff" data-fill-palette-color="accent"></path><path d="M26.388 245.417v0c1.762-0.653 2.893-1.776 3.392-3.369 0.493-1.591 0.628-4.186 0.405-7.785-0.226-3.59-0.096-6.561 0.391-8.913v0c0.943-4.51 3.26-7.449 6.951-8.815v0c3.237-1.199 6.391-0.868 9.463 0.993 3.071 1.861 5.386 4.896 6.944 9.103v0c1.034 2.79 1.439 5.472 1.216 8.046-0.219 2.564-1.045 4.824-2.478 6.777-1.442 1.95-3.321 3.354-5.639 4.213v0l-2.572-6.944c2.094-0.776 3.493-2.038 4.196-3.787 0.694-1.753 0.588-3.852-0.318-6.297v0c-0.844-2.279-1.985-3.868-3.421-4.767-1.443-0.896-3.036-1.021-4.779-0.376v0c-1.469 0.544-2.443 1.678-2.922 3.403-0.48 1.724-0.604 4.319-0.374 7.784 0.224 3.468 0.097 6.368-0.381 8.702-0.488 2.33-1.334 4.219-2.541 5.668-1.206 1.449-2.837 2.554-4.893 3.316v0c-3.346 1.239-6.479 0.944-9.4-0.886-2.93-1.834-5.208-4.944-6.833-9.33v0c-1.076-2.905-1.525-5.774-1.347-8.606 0.172-2.83 0.952-5.272 2.34-7.326 1.397-2.05 3.354-3.54 5.87-4.472v0l2.582 6.972c-2.279 0.844-3.763 2.251-4.449 4.219-0.693 1.97-0.52 4.36 0.521 7.17v0c0.899 2.426 2.066 4.067 3.5 4.922 1.435 0.855 2.96 0.984 4.576 0.385z" fill="#ffffff" data-fill-palette-color="accent"></path><path d="M75.658 303.007l-0.313 0.309c-3.5 3.452-7.076 5.412-10.729 5.878-3.658 0.471-6.806-0.631-9.445-3.307v0c-2.448-2.482-3.592-5.275-3.432-8.38v0l-10.732 10.587-5.013-5.082 31.338-30.915 4.619 4.683-2.09 2.477c3.286-0.295 6.193 0.839 8.723 3.404v0c2.726 2.763 3.833 5.946 3.322 9.548-0.511 3.593-2.594 7.192-6.248 10.798zM70.789 297.825v0c2.259-2.228 3.608-4.448 4.047-6.66 0.439-2.202-0.167-4.139-1.817-5.812v0c-2.051-2.08-4.382-2.726-6.992-1.94v0l-10.041 9.905c-0.846 2.652-0.239 5.023 1.822 7.112v0c1.597 1.619 3.5 2.243 5.707 1.873 2.203-0.375 4.628-1.868 7.274-4.478z" fill="#ffffff" data-fill-palette-color="accent"></path><path d="M116.764 344.093v0c-4.215-1.636-7.117-4.292-8.706-7.969-1.589-3.677-1.527-7.725 0.188-12.143v0l0.318-0.819c1.148-2.958 2.745-5.38 4.792-7.266 2.04-1.889 4.347-3.079 6.918-3.57 2.568-0.501 5.122-0.258 7.661 0.727v0c4.031 1.564 6.647 4.063 7.85 7.494 1.202 3.432 0.89 7.503-0.939 12.213v0l-1.042 2.686-19.366-7.517c-0.754 2.527-0.69 4.779 0.192 6.758 0.883 1.979 2.41 3.389 4.581 4.232v0c3.053 1.185 6.016 0.918 8.889-0.801v0l2.259 4.821c-1.874 1.31-3.991 2.07-6.351 2.279-2.36 0.209-4.774-0.166-7.244-1.125zM125.83 318.393v0c-1.828-0.71-3.552-0.644-5.171 0.195-1.619 0.84-3.027 2.342-4.225 4.507v0l12.683 4.922 0.192-0.495c0.719-2.285 0.779-4.2 0.182-5.747-0.6-1.54-1.82-2.668-3.661-3.382z" fill="#ffffff" data-fill-palette-color="accent"></path><path d="M172.896 322.652l6.726-0.245 0.338 3.667c2.244-2.93 5.274-4.464 9.092-4.604v0c6.621-0.241 10.127 3.426 10.519 11.002v0l0.765 20.996-7.135 0.26-0.75-20.587c-0.073-2.014-0.563-3.492-1.47-4.433-0.906-0.934-2.349-1.366-4.329-1.294v0c-2.878 0.105-4.974 1.486-6.288 4.144v0l0.824 22.607-7.134 0.26z" fill="#ffffff" data-fill-palette-color="accent"></path><path d="M237.862 326.494v0c-2.176-4.385-2.905-8.413-2.187-12.083 0.718-3.67 2.787-6.354 6.209-8.052v0c3.019-1.498 5.983-1.654 8.89-0.466v0l-7.237-14.584 6.396-3.173 20.061 40.429-5.791 2.874-1.783-2.787c-0.759 3.265-2.737 5.691-5.932 7.276v0c-3.336 1.655-6.703 1.65-10.099-0.017-3.393-1.661-6.235-4.8-8.527-9.417zM244.534 323.879v0c1.438 2.897 3.117 4.88 5.039 5.949 1.921 1.069 3.907 1.094 5.956 0.077v0c2.617-1.298 3.952-3.417 4.007-6.355v0l-6.034-12.159c-2.309-1.697-4.772-1.896-7.388-0.598v0c-2.068 1.026-3.256 2.638-3.564 4.836-0.314 2.201 0.347 4.951 1.984 8.25z" fill="#ffffff" data-fill-palette-color="accent"></path><path d="M288.087 271.483l23.272 21.663-4.864 5.226-23.272-21.663zM276.883 271.407v0c-0.807-0.752-1.239-1.627-1.294-2.627-0.055-1 0.358-1.974 1.24-2.921 0.881-0.947 1.825-1.431 2.831-1.453 1.011-0.027 1.92 0.336 2.727 1.088v0c0.787 0.733 1.202 1.602 1.243 2.607 0.045 1-0.373 1.974-1.254 2.922-0.881 0.947-1.82 1.431-2.817 1.452-0.997 0.021-1.889-0.335-2.676-1.068z" fill="#ffffff" data-fill-palette-color="accent"></path><path d="M321.529 248.526l-0.323-0.128c-2.9-1.147-5.284-2.755-7.152-4.826-1.864-2.062-3.01-4.379-3.437-6.949-0.433-2.573-0.116-5.208 0.951-7.905v0c1.577-3.989 4.142-6.717 7.694-8.183 3.555-1.472 7.493-1.471 11.816 0.004v0l1.569 0.587c2.913 1.152 5.297 2.742 7.152 4.772 1.855 2.029 2.997 4.337 3.425 6.922 0.436 2.581 0.114 5.24-0.968 7.975v0c-1.65 4.173-4.359 6.96-8.127 8.363-3.771 1.409-7.971 1.198-12.6-0.632zM324.401 241.984v0c3.046 1.204 5.679 1.517 7.899 0.938 2.212-0.575 3.761-1.984 4.647-4.226 0.886-2.242 0.702-4.332-0.553-6.27-1.254-1.938-3.566-3.573-6.934-4.905v0c-2.989-1.182-5.61-1.478-7.863-0.89-2.256 0.595-3.819 1.994-4.691 4.197v0c-0.859 2.172-0.682 4.233 0.531 6.185 1.217 1.96 3.538 3.617 6.964 4.971z" fill="#ffffff" data-fill-palette-color="accent"></path><path d="M0.145 176.83c0-9.026 7.317-16.344 16.344-16.343 9.026 0 16.344 7.317 16.344 16.343 0 9.026-7.317 16.344-16.344 16.344-9.026 0-16.344-7.317-16.344-16.344z" fill="#ffffff" data-fill-palette-color="accent"></path><path d="M321.593 176.83c0-9.026 7.317-16.344 16.344-16.343 9.026 0 16.344 7.317 16.343 16.343 0 9.026-7.317 16.344-16.343 16.344-9.026 0-16.344-7.317-16.344-16.344z" fill="#ffffff" data-fill-palette-color="accent"></path></g><g id="text-1"></g></svg></g></svg></g></svg></g><defs></defs></svg><rect width="395.52" height="173.97026958358816" fill="none" stroke="none" visibility="hidden"></rect></g></svg></g></svg>